<?xml version="1.0" encoding="UTF-8" standalone="no"?>
<svg
   xmlns:dc="http://purl.org/dc/elements/1.1/"
   xmlns:cc="http://creativecommons.org/ns#"
   xmlns:rdf="http://www.w3.org/1999/02/22-rdf-syntax-ns#"
   xmlns:svg="http://www.w3.org/2000/svg"
   xmlns="http://www.w3.org/2000/svg"
   xmlns:xlink="http://www.w3.org/1999/xlink"
   xmlns:sodipodi="http://sodipodi.sourceforge.net/DTD/sodipodi-0.dtd"
   xmlns:inkscape="http://www.inkscape.org/namespaces/inkscape"
   sodipodi:docname="yast-live-install.svg"
   viewBox="0 0 128 128"
   height="128"
   width="128"
   inkscape:version="1.0 (4035a4fb49, 2020-05-01)"
   version="1.1"
   id="svg2">
  <metadata
     id="metadata8">
    <rdf:RDF>
      <cc:Work
         rdf:about="">
        <dc:format>image/svg+xml</dc:format>
        <dc:type
           rdf:resource="http://purl.org/dc/dcmitype/StillImage" />
        <dc:title />
      </cc:Work>
    </rdf:RDF>
  </metadata>
  <defs
     id="defs6">
    <linearGradient
       id="linearGradient4171"
       inkscape:collect="always">
      <stop
         id="stop4173"
         offset="0"
         style="stop-color:#ebedee;stop-opacity:1" />
      <stop
         id="stop4175"
         offset="1"
         style="stop-color:#d7dadc;stop-opacity:1" />
    </linearGradient>
    <linearGradient
       id="linearGradient4178"
       inkscape:collect="always">
      <stop
         id="stop4180"
         offset="0"
         style="stop-color:#9af590;stop-opacity:1" />
      <stop
         id="stop4182"
         offset="1"
         style="stop-color:#74ce6d;stop-opacity:1" />
    </linearGradient>
    <linearGradient
       id="linearGradient4152"
       inkscape:collect="always">
      <stop
         id="stop4154"
         offset="0"
         style="stop-color:#a5abae;stop-opacity:1" />
      <stop
         style="stop-color:#c5ccd0;stop-opacity:1"
         offset="0.03589743"
         id="stop4166" />
      <stop
         style="stop-color:#d7dee2;stop-opacity:1"
         offset="0.07179487"
         id="stop4160" />
      <stop
         id="stop4162"
         offset="0.11461538"
         style="stop-color:#dde2e5;stop-opacity:1" />
      <stop
         style="stop-color:#bbbdbd;stop-opacity:1"
         offset="0.24576923"
         id="stop4164" />
      <stop
         id="stop4174"
         offset="0.30291665"
         style="stop-color:#bbbcbc;stop-opacity:1" />
      <stop
         id="stop4168"
         offset="0.5113461"
         style="stop-color:#c6cacb;stop-opacity:1" />
      <stop
         style="stop-color:#d5dbdd;stop-opacity:1"
         offset="0.75567305"
         id="stop4170" />
      <stop
         id="stop4172"
         offset="0.93333334"
         style="stop-color:#cbd3d6;stop-opacity:1;" />
      <stop
         id="stop4156"
         offset="1"
         style="stop-color:#a6aaac;stop-opacity:1" />
    </linearGradient>
    <linearGradient
       id="linearGradient4141"
       inkscape:collect="always">
      <stop
         id="stop4143"
         offset="0"
         style="stop-color:#8e9190;stop-opacity:1" />
      <stop
         id="stop4145"
         offset="1"
         style="stop-color:#dee4e6;stop-opacity:1" />
    </linearGradient>
    <linearGradient
       gradientTransform="matrix(0.81978949,0,0,0.81978949,-127.56266,2.210347)"
       gradientUnits="userSpaceOnUse"
       y2="7.2881422"
       x2="235.95546"
       y1="125.25424"
       x1="235.95546"
       id="linearGradient4147"
       xlink:href="#linearGradient4141"
       inkscape:collect="always" />
    <linearGradient
       gradientTransform="matrix(0.81978949,0,0,0.81978949,-7.9269202,-40.233924)"
       gradientUnits="userSpaceOnUse"
       y2="183.4442"
       x2="13.559327"
       y1="183.4442"
       x1="145.76271"
       id="linearGradient4158"
       xlink:href="#linearGradient4152"
       inkscape:collect="always" />
    <radialGradient
       gradientTransform="matrix(0.81978949,0,0,0.81978949,-11.866607,2.210347)"
       gradientUnits="userSpaceOnUse"
       r="2.3969722"
       fy="137.28868"
       fx="128.23802"
       cy="137.28868"
       cx="128.23802"
       id="radialGradient4184"
       xlink:href="#linearGradient4178"
       inkscape:collect="always" />
    <linearGradient
       y2="1146.8351"
       y1="1116.8074"
       x2="-22.211618"
       x1="-20.764721"
       gradientUnits="userSpaceOnUse"
       id="e"
       gradientTransform="matrix(2.213863,0,0,2.213863,289.84755,-2436.2025)">
      <stop
         style="stop-color:#038e86;stop-opacity:1"
         id="stop25"
         stop-color="#1296d5"
         offset="0" />
      <stop
         style="stop-color:#04aba1;stop-opacity:1"
         id="stop27"
         stop-color="#4fb6e8"
         offset="1" />
    </linearGradient>
    <linearGradient
       gradientTransform="matrix(1.097561,0,0,1.097561,-12.44087,-0.04693473)"
       gradientUnits="userSpaceOnUse"
       y2="57.289322"
       x2="103.0698"
       y1="3.1177506"
       x1="98.755257"
       id="linearGradient4177"
       xlink:href="#linearGradient4171"
       inkscape:collect="always" />
    <filter
       style="color-interpolation-filters:sRGB"
       id="c"
       height="1.1655999"
       width="1.1655999"
       x="-0.082800001"
       y="-0.082800001">
      <feGaussianBlur
         stdDeviation="2.1101835"
         id="feGaussianBlur10" />
    </filter>
    <filter
       style="color-interpolation-filters:sRGB"
       id="a"
       height="1.031026"
       width="1.031376"
       x="-0.015688"
       y="-0.015513">
      <feGaussianBlur
         stdDeviation=".7986332"
         id="feGaussianBlur2" />
    </filter>
    <clipPath
       id="clipPath16"
       clipPathUnits="userSpaceOnUse">
      <path
         inkscape:connector-curvature="0"
         id="path18"
         d="m 0,200.303 320,0 L 320,0 0,0 0,200.303 Z" />
    </clipPath>
  </defs>
  <sodipodi:namedview
     inkscape:document-rotation="0"
     inkscape:current-layer="svg2"
     inkscape:window-maximized="1"
     inkscape:window-y="0"
     inkscape:window-x="0"
     inkscape:cy="98.005081"
     inkscape:cx="53.916191"
     inkscape:zoom="4.17"
     showgrid="false"
     id="namedview4"
     inkscape:window-height="1056"
     inkscape:window-width="1920"
     inkscape:pageshadow="2"
     inkscape:pageopacity="0"
     guidetolerance="10"
     gridtolerance="10"
     objecttolerance="10"
     borderopacity="1"
     bordercolor="#666666"
     pagecolor="#ffffff" />
  <g
     style="opacity:0.7"
     transform="matrix(0.81978949,0,0,0.81978949,-263.24534,2.6370639)"
     id="g4201">
    <path
       style="opacity:1;fill:none;fill-opacity:0.04942968;stroke:#000000;stroke-width:2;stroke-linecap:round;stroke-linejoin:round;stroke-miterlimit:4;stroke-dasharray:none;stroke-dashoffset:0;stroke-opacity:0.04562737;paint-order:fill markers stroke"
       d="m 339.38795,6.1015625 c -3.15889,0 -5.42867,2.5540551 -5.70118,5.7011715 l -9.46093,109.244146 -0.19922,0 0,22.32421 c 0,3.15889 2.54423,5.70118 5.70312,5.70118 l 121.47656,0 c 3.1589,0 5.70313,-2.54229 5.70313,-5.70118 l 0,-22.32421 -0.20898,0 L 445.8899,11.802734 c -0.31109,-3.1435376 -2.54424,-5.7011715 -5.70313,-5.7011715 l -100.79882,0 z"
       id="path4190"
       inkscape:connector-curvature="0" />
    <path
       inkscape:connector-curvature="0"
       id="path4197"
       d="m 339.38795,6.1015625 c -3.15889,0 -5.42867,2.5540551 -5.70118,5.7011715 l -9.46093,109.244146 -0.19922,0 0,22.32421 c 0,3.15889 2.54423,5.70118 5.70312,5.70118 l 121.47656,0 c 3.1589,0 5.70313,-2.54229 5.70313,-5.70118 l 0,-22.32421 -0.20898,0 L 445.8899,11.802734 c -0.31109,-3.1435376 -2.54424,-5.7011715 -5.70313,-5.7011715 l -100.79882,0 z"
       style="opacity:1;fill:none;fill-opacity:0.04942968;stroke:#000000;stroke-width:4;stroke-linecap:round;stroke-linejoin:round;stroke-miterlimit:4;stroke-dasharray:none;stroke-dashoffset:0;stroke-opacity:0.04562737;paint-order:fill markers stroke" />
    <path
       style="opacity:1;fill:none;fill-opacity:0.04942968;stroke:#000000;stroke-width:6;stroke-linecap:round;stroke-linejoin:round;stroke-miterlimit:4;stroke-dasharray:none;stroke-dashoffset:0;stroke-opacity:0.04562737;paint-order:fill markers stroke"
       d="m 339.38795,6.1015625 c -3.15889,0 -5.42867,2.5540551 -5.70118,5.7011715 l -9.46093,109.244146 -0.19922,0 0,22.32421 c 0,3.15889 2.54423,5.70118 5.70312,5.70118 l 121.47656,0 c 3.1589,0 5.70313,-2.54229 5.70313,-5.70118 l 0,-22.32421 -0.20898,0 L 445.8899,11.802734 c -0.31109,-3.1435376 -2.54424,-5.7011715 -5.70313,-5.7011715 l -100.79882,0 z"
       id="path4199"
       inkscape:connector-curvature="0" />
  </g>
  <path
     sodipodi:nodetypes="csssscc"
     inkscape:connector-curvature="0"
     id="rect4149"
     d="m 111.84571,101.44259 0,18.3017 c 0,2.58962 -2.08479,4.67441 -4.67441,4.67441 l -99.5859094,0 c -2.589625,0 -4.674415,-2.08479 -4.674415,-4.67441 l 0,-18.3017 z"
     style="opacity:1;fill:url(#linearGradient4158);fill-opacity:1;stroke:none;stroke-width:2;stroke-linecap:round;stroke-linejoin:round;stroke-miterlimit:4;stroke-dasharray:none;stroke-dashoffset:0;stroke-opacity:1;paint-order:fill markers stroke" />
  <path
     sodipodi:nodetypes="sssssssss"
     inkscape:connector-curvature="0"
     id="rect4138"
     d="m 15.503344,7.2124525 82.63432,0 c 2.589626,0 4.419386,2.0973789 4.674416,4.6744185 l 8.89263,89.859589 c 0.25503,2.57704 -2.08479,4.67442 -4.67441,4.67442 l -99.3080044,0 c -2.589633,0 -4.897824,-2.09444 -4.674423,-4.67442 L 10.828929,11.886871 c 0.223401,-2.5799736 2.08479,-4.6744185 4.674415,-4.6744185 z"
     style="opacity:1;fill:url(#linearGradient4147);fill-opacity:1;stroke:none;stroke-width:2;stroke-linecap:round;stroke-linejoin:round;stroke-miterlimit:4;stroke-dasharray:none;stroke-dashoffset:0;stroke-opacity:1;paint-order:fill markers stroke" />
  <circle
     r="1.9650126"
     cy="114.75816"
     cx="93.261574"
     id="path4176"
     style="opacity:1;fill:url(#radialGradient4184);fill-opacity:1;stroke:#76a578;stroke-width:0.40989473;stroke-linecap:round;stroke-linejoin:round;stroke-miterlimit:4;stroke-dasharray:none;stroke-dashoffset:0;stroke-opacity:1;paint-order:fill markers stroke" />
  <circle
     r="0.49125314"
     cy="114.75816"
     cx="93.261574"
     id="path4188"
     style="opacity:1;fill:#ffffff;fill-opacity:0.29657796;stroke:none;stroke-width:0.5;stroke-linecap:round;stroke-linejoin:round;stroke-miterlimit:4;stroke-dasharray:none;stroke-dashoffset:0;stroke-opacity:1;paint-order:fill markers stroke" />
  <path
     inkscape:connector-curvature="0"
     id="path4217"
     d="m 3.1265146,100.83647 -0.07845,0.90945 c -0.223401,2.57998 2.084126,4.67536 4.673759,4.67536 l 99.3082064,0 c 2.58963,0 4.93039,-2.09831 4.67537,-4.67536 l -0.0833,-0.84221 c -0.45186,1.9793 -2.43233,3.43928 -4.5921,3.43928 l -99.3082064,0 c -2.184452,0 -4.161964,-1.4916 -4.595305,-3.50652 z"
     style="opacity:1;fill:#e0e3e4;fill-opacity:1;stroke:none;stroke-width:2;stroke-linecap:round;stroke-linejoin:round;stroke-miterlimit:4;stroke-dasharray:none;stroke-dashoffset:0;stroke-opacity:1;paint-order:fill markers stroke" />
  <g
     id="g4195">
    <circle
       cy="33.547253"
       cx="94.92363"
       id="circle4183"
       style="opacity:1;fill:#000000;fill-opacity:0.01520913;stroke:none;stroke-width:6;stroke-linecap:round;stroke-linejoin:round;stroke-miterlimit:4;stroke-dasharray:none;stroke-dashoffset:0;stroke-opacity:0.04562737;paint-order:fill markers stroke"
       r="33.376072" />
    <path
       id="circle4187"
       d="M 74.25 7.2128906 A 33.376072 33.376072 0 0 0 60.767578 33.966797 A 33.376072 33.376072 0 0 0 94.144531 67.34375 A 33.376072 33.376072 0 0 0 107.99805 64.287109 L 102.8125 11.886719 C 102.55747 9.3096792 100.72634 7.2128906 98.136719 7.2128906 L 74.25 7.2128906 z "
       style="opacity:1;fill:#000000;fill-opacity:0.01520912;stroke:none;stroke-width:6;stroke-linecap:round;stroke-linejoin:round;stroke-miterlimit:4;stroke-dasharray:none;stroke-dashoffset:0;stroke-opacity:0.04562737;paint-order:fill markers stroke" />
    <path
       id="circle4191"
       d="M 74.679688 7.2128906 A 33.376072 33.376072 0 0 0 59.689453 35.044922 A 33.376072 33.376072 0 0 0 93.066406 68.421875 A 33.376072 33.376072 0 0 0 108.05469 64.857422 L 102.8125 11.886719 C 102.55747 9.3096792 100.72634 7.2128906 98.136719 7.2128906 L 74.679688 7.2128906 z "
       style="opacity:1;fill:#000000;fill-opacity:0.01520912;stroke:none;stroke-width:6;stroke-linecap:round;stroke-linejoin:round;stroke-miterlimit:4;stroke-dasharray:none;stroke-dashoffset:0;stroke-opacity:0.04562737;paint-order:fill markers stroke" />
    <path
       id="circle4193"
       d="M 75.082031 7.2128906 A 33.376072 33.376072 0 0 0 59.03125 35.705078 A 33.376072 33.376072 0 0 0 92.40625 69.080078 A 33.376072 33.376072 0 0 0 108.08203 65.142578 L 102.8125 11.886719 C 102.55747 9.3096792 100.72634 7.2128906 98.136719 7.2128906 L 75.082031 7.2128906 z "
       style="opacity:1;fill:#000000;fill-opacity:0.01520912;stroke:none;stroke-width:6;stroke-linecap:round;stroke-linejoin:round;stroke-miterlimit:4;stroke-dasharray:none;stroke-dashoffset:0;stroke-opacity:0.04562737;paint-order:fill markers stroke" />
  </g>
  <path
     id="circle4189"
     d="M 74.404297 7.2128906 A 33.376072 33.376072 0 0 0 60.169922 34.505859 A 33.376072 33.376072 0 0 0 93.544922 67.882812 A 33.376072 33.376072 0 0 0 108.02344 64.546875 L 102.8125 11.886719 C 102.55747 9.3096792 100.72634 7.2128906 98.136719 7.2128906 L 74.404297 7.2128906 z "
     style="opacity:1;fill:#000000;fill-opacity:0.01520912;stroke:none;stroke-width:6;stroke-linecap:round;stroke-linejoin:round;stroke-miterlimit:4;stroke-dasharray:none;stroke-dashoffset:0;stroke-opacity:0.04562737;paint-order:fill markers stroke" />
  <circle
     r="32.359123"
     cy="32.840206"
     cx="95.159798"
     id="path4169"
     style="opacity:1;fill:url(#linearGradient4177);fill-opacity:1;stroke:none;stroke-width:6;stroke-linecap:round;stroke-linejoin:round;stroke-miterlimit:4;stroke-dasharray:none;stroke-dashoffset:0;stroke-opacity:0.04562737;paint-order:fill markers stroke" />
  <circle
     r="27.20339"
     cy="32.840206"
     cx="95.159798"
     id="path4297"
     style="opacity:1;fill:#a02c2c;fill-opacity:1;stroke:none;stroke-width:6;stroke-linecap:round;stroke-linejoin:round;stroke-miterlimit:4;stroke-dasharray:none;stroke-dashoffset:0;stroke-opacity:0.04562737;paint-order:fill markers stroke" />
  <path
     id="circle4307"
     d="M 95.160156 5.6367188 A 27.20339 27.20339 0 0 0 67.957031 32.839844 A 27.20339 27.20339 0 0 0 95.160156 60.042969 A 27.20339 27.20339 0 0 0 122.36328 32.839844 A 27.20339 27.20339 0 0 0 95.160156 5.6367188 z M 95.160156 7.796875 A 25.042374 25.042374 0 0 1 120.20312 32.839844 A 25.042374 25.042374 0 0 1 95.160156 57.882812 A 25.042374 25.042374 0 0 1 70.117188 32.839844 A 25.042374 25.042374 0 0 1 95.160156 7.796875 z "
     style="opacity:1;fill:#000000;fill-opacity:0.06844106;stroke:none;stroke-width:6;stroke-linecap:round;stroke-linejoin:round;stroke-miterlimit:4;stroke-dasharray:none;stroke-dashoffset:0;stroke-opacity:0.04562737;paint-order:fill markers stroke" />
  <path
     id="circle4311"
     d="M 95.160156 5.6367188 A 27.20339 27.20339 0 0 0 67.957031 32.839844 A 27.20339 27.20339 0 0 0 95.160156 60.042969 A 27.20339 27.20339 0 0 0 122.36328 32.839844 A 27.20339 27.20339 0 0 0 95.160156 5.6367188 z M 95.160156 6.9921875 A 25.847458 25.847458 0 0 1 121.00781 32.839844 A 25.847458 25.847458 0 0 1 95.160156 58.6875 A 25.847458 25.847458 0 0 1 69.3125 32.839844 A 25.847458 25.847458 0 0 1 95.160156 6.9921875 z "
     style="opacity:1;fill:#000000;fill-opacity:0.06844106;stroke:none;stroke-width:6;stroke-linecap:round;stroke-linejoin:round;stroke-miterlimit:4;stroke-dasharray:none;stroke-dashoffset:0;stroke-opacity:0.04562737;paint-order:fill markers stroke" />
  <path
     inkscape:connector-curvature="0"
     id="rect4315"
     d="m 89.336554,17.720089 c -0.811434,0 -1.464844,0.65341 -1.464844,1.464844 l 0,10.617187 -7.011719,0 14.638672,18.158204 13.960937,-18.158204 -7.01172,0 0,-10.617187 c 0,-0.811434 -0.65341,-1.464844 -1.46485,-1.464844 l -11.646476,0 z"
     style="opacity:1;fill:#ffffff;fill-opacity:0.81749052;stroke:none;stroke-width:6;stroke-linecap:round;stroke-linejoin:round;stroke-miterlimit:4;stroke-dasharray:none;stroke-dashoffset:0;stroke-opacity:0.04562737;paint-order:fill markers stroke" />
</svg>
